<?xml version="1.0" encoding="utf-8"?>
<!-- Generator: Adobe Illustrator 26.0.3, SVG Export Plug-In . SVG Version: 6.00 Build 0)  -->
<svg version="1.1" id="Capa_1" xmlns="http://www.w3.org/2000/svg" xmlns:xlink="http://www.w3.org/1999/xlink" x="0px" y="0px"
	 viewBox="0 0 90 90" style="enable-background:new 0 0 90 90;" xml:space="preserve">
<style type="text/css">
	.st0{fill:#FFFFFF;}
</style>
<g>
	<path class="st0" d="M45,2.3C21.4,2.3,2.3,21.4,2.3,45S21.4,87.7,45,87.7S87.7,68.6,87.7,45S68.6,2.3,45,2.3z M9.1,56.6
		c0,0.2-0.1,0.3-0.3,0.3c-0.1,0-0.3-0.1-0.3-0.3l-0.5-4l0.5-4.1c0-0.2,0.1-0.3,0.3-0.3c0.1,0,0.3,0.1,0.3,0.3l0.6,4.1L9.1,56.6z
		 M11.9,59.1c0,0.2-0.1,0.3-0.3,0.3s-0.3-0.1-0.3-0.3l-0.7-6.5l0.7-6.7c0-0.2,0.1-0.3,0.3-0.3s0.3,0.1,0.3,0.3l0.8,6.7L11.9,59.1z
		 M14.8,60.2c0,0.2-0.2,0.4-0.4,0.4s-0.4-0.1-0.4-0.4l-0.7-7.6l0.7-7.9c0-0.2,0.2-0.4,0.4-0.4c0.2,0,0.4,0.1,0.4,0.4l0.8,7.9
		L14.8,60.2z M17.8,60.4c0,0.2-0.2,0.4-0.4,0.4c-0.2,0-0.4-0.2-0.4-0.4l-0.7-7.8l0.7-8.1c0-0.2,0.2-0.4,0.4-0.4
		c0.2,0,0.4,0.2,0.4,0.4l0.7,8.1L17.8,60.4z M20.8,60.5c0,0.3-0.2,0.5-0.5,0.5c-0.3,0-0.5-0.2-0.5-0.5l-0.6-7.9l0.6-7.5
		c0-0.3,0.2-0.5,0.5-0.5c0.3,0,0.5,0.2,0.5,0.5l0.7,7.5L20.8,60.5z M23.9,60.5L23.9,60.5c0,0.3-0.3,0.6-0.6,0.6s-0.5-0.2-0.6-0.6
		l-0.6-7.9l0.6-12.2c0-0.3,0.3-0.6,0.6-0.6s0.5,0.2,0.6,0.6l0.7,12.2L23.9,60.5z M26.9,60.5L26.9,60.5c0,0.3-0.3,0.6-0.6,0.6
		c-0.3,0-0.6-0.3-0.6-0.6l-0.5-7.9l0.5-15c0-0.3,0.3-0.6,0.6-0.6c0.3,0,0.6,0.3,0.6,0.6l0.6,15L26.9,60.5z M30.1,60.3L30.1,60.3
		c0,0.4-0.3,0.7-0.7,0.7c-0.4,0-0.7-0.3-0.7-0.7l-0.5-7.8l0.5-16.3c0-0.4,0.3-0.7,0.7-0.7c0.4,0,0.7,0.3,0.7,0.7l0.6,16.3L30.1,60.3
		z M33.2,60.3c0,0.4-0.3,0.7-0.7,0.7s-0.7-0.3-0.7-0.7l-0.5-7.7l0.5-16.8c0-0.4,0.3-0.7,0.7-0.7s0.7,0.3,0.7,0.7l0.5,16.8L33.2,60.3
		z M36.3,60.2L36.3,60.2c0,0.4-0.4,0.8-0.8,0.8c-0.4,0-0.8-0.4-0.8-0.8l-0.4-7.7l0.4-16.4c0-0.5,0.4-0.8,0.8-0.8
		c0.4,0,0.8,0.4,0.8,0.8l0.5,16.4L36.3,60.2z M39.5,60.2L39.5,60.2c0,0.5-0.4,0.9-0.9,0.9c-0.5,0-0.9-0.4-0.9-0.9l-0.4-7.6l0.4-15.8
		c0-0.5,0.4-0.9,0.9-0.9s0.9,0.4,0.9,0.9l0.4,15.8L39.5,60.2z M42.7,59.4l0,0.7c0,0.3-0.1,0.5-0.3,0.7c-0.2,0.2-0.4,0.3-0.7,0.3
		c-0.3,0-0.5-0.1-0.7-0.3c-0.1-0.1-0.2-0.4-0.2-0.6c0,0,0,0,0,0c0,0-0.4-7.5-0.4-7.6L40.8,34v-0.2c0-0.3,0.2-0.6,0.4-0.8
		c0.1-0.1,0.3-0.1,0.5-0.1c0.2,0,0.4,0.1,0.5,0.2c0.2,0.2,0.4,0.4,0.4,0.8L43,52.6L42.7,59.4z M45.8,60L45.8,60L45.8,60
		c0,0.5-0.5,1-1,1s-1-0.4-1-1l-0.2-3.7l-0.2-3.8l0.4-20.4v-0.1c0-0.3,0.1-0.6,0.4-0.8c0.2-0.1,0.4-0.2,0.6-0.2
		c0.2,0,0.4,0.1,0.5,0.1c0.3,0.2,0.5,0.5,0.5,0.9l0.4,20.5L45.8,60z M72.9,61c0,0-25.2,0-25.2,0c-0.5-0.1-1-0.5-1-1
		c0,0,0-28.9,0-28.9c0-0.5,0.2-0.8,0.9-1.1c1.8-0.7,3.8-1.1,5.8-1.1c8.4,0,15.3,6.4,16,14.7c1.1-0.5,2.3-0.7,3.5-0.7
		c5,0,9.1,4.1,9.1,9.1C82,57,78,61,72.9,61z"/>
</g>
</svg>
