<?xml version="1.0" encoding="utf-8"?>
<!-- Generator: Adobe Illustrator 26.0.3, SVG Export Plug-In . SVG Version: 6.00 Build 0)  -->
<svg version="1.1" xmlns="http://www.w3.org/2000/svg" xmlns:xlink="http://www.w3.org/1999/xlink" x="0px" y="0px"
	 viewBox="0 0 90 90" style="enable-background:new 0 0 90 90;" xml:space="preserve">
<style type="text/css">
	.st0{display:none;}
	.st1{display:inline;fill-rule:evenodd;clip-rule:evenodd;}
	.st2{fill-rule:evenodd;clip-rule:evenodd;fill:#FFFFFF;}
</style>
<g id="Layer_2" class="st0">
	<rect class="st1" width="90" height="90"/>
</g>
<g id="Layer_1">
	<path class="st2" d="M44.8,2.5C21.3,2.5,2.3,22,2.3,46.1c0,19.3,12.2,35.6,29.1,41.3c2.1,0.4,2.9-0.9,2.9-2.1c0-1-0.1-4.5-0.1-8.1
		c-11.8,2.6-14.3-5.2-14.3-5.2c-1.9-5.1-4.7-6.3-4.7-6.3C11.3,63,15.5,63,15.5,63c4.3,0.3,6.5,4.5,6.5,4.5c3.8,6.6,9.9,4.8,12.4,3.6
		c0.4-2.8,1.5-4.8,2.7-5.8c-9.4-1-19.4-4.8-19.4-21.5c0-4.8,1.7-8.7,4.4-11.7c-0.4-1.1-1.9-5.6,0.4-11.5c0,0,3.6-1.2,11.7,4.5
		c3.5-1,7-1.4,10.6-1.4c3.6,0,7.3,0.5,10.6,1.4c8.1-5.6,11.7-4.5,11.7-4.5c2.3,6,0.8,10.5,0.4,11.5c2.7,3,4.4,6.9,4.4,11.7
		c0,16.7-9.9,20.4-19.4,21.5c1.5,1.4,2.9,4,2.9,8.1c0,5.8-0.1,10.5-0.1,12c0,1.2,0.8,2.5,2.9,2.1c16.9-5.8,29.1-22.1,29.1-41.3
		C87.4,22,68.3,2.5,44.8,2.5z"/>
</g>
</svg>
