<?xml version="1.0" encoding="utf-8"?>
<!-- Generator: Adobe Illustrator 26.0.3, SVG Export Plug-In . SVG Version: 6.00 Build 0)  -->
<svg version="1.1" xmlns="http://www.w3.org/2000/svg" xmlns:xlink="http://www.w3.org/1999/xlink" x="0px" y="0px"
	 viewBox="0 0 90 90" style="enable-background:new 0 0 90 90;" xml:space="preserve">
<style type="text/css">
	.st0{display:none;}
	.st1{display:inline;}
	.st2{fill:#FFFFFF;}
</style>
<g id="Layer_2" class="st0">
	<rect class="st1" width="90" height="90"/>
</g>
<g id="Layer_1">
	<g>
		<g transform="scale(8.53333,8.53333)">
			<path class="st2" d="M5.3,0.3c-2.8,0-5,2.2-5,5s2.2,5,5,5s5-2.2,5-5S8,0.3,5.3,0.3z M3.4,2.5C3.8,2.5,4,2.8,4,3.1
				S3.8,3.6,3.4,3.6C3,3.6,2.8,3.4,2.8,3.1S3,2.5,3.4,2.5z M4,7.3H2.8V4H4V7.3z M8.2,7.3H7V5.5C7,5,6.7,4.9,6.6,4.9
				C6.5,4.9,6.1,5,6.1,5.5c0,0.1,0,1.8,0,1.8H4.9V4h1.2v0.5C6.2,4.2,6.5,4,7.1,4s1.1,0.5,1.1,1.5V7.3z"/>
		</g>
	</g>
</g>
</svg>
