<?xml version="1.0" encoding="utf-8"?>
<!-- Generator: Adobe Illustrator 26.0.3, SVG Export Plug-In . SVG Version: 6.00 Build 0)  -->
<svg version="1.1" id="Capa_1" xmlns="http://www.w3.org/2000/svg" xmlns:xlink="http://www.w3.org/1999/xlink" x="0px" y="0px"
	 viewBox="0 0 800 800" style="enable-background:new 0 0 800 800;" xml:space="preserve">
<style type="text/css">
	.st0{fill:#FFFFFF;}
</style>
<g>
	<path class="st0" d="M400,0C179.1,0,0,179.1,0,400s179.1,400,400,400s400-179.1,400-400S620.9,0,400,0z M63.3,508.8
		c-0.2,1.6-1.4,2.7-2.8,2.7c-1.4,0-2.6-1.1-2.8-2.7l-5.1-37.9l5.1-38.6c0.2-1.6,1.3-2.7,2.8-2.7c1.4,0,2.6,1.1,2.8,2.7l6,38.6
		L63.3,508.8z M89.1,531.9c-0.2,1.6-1.4,2.8-2.9,2.8c-1.5,0-2.7-1.2-2.9-2.8l-6.8-61l6.8-62.4c0.2-1.6,1.4-2.8,2.9-2.8
		c1.5,0,2.7,1.2,2.9,2.8l7.8,62.4L89.1,531.9z M117,542.2c-0.2,2-1.7,3.4-3.5,3.4c-1.8,0-3.3-1.4-3.5-3.4l-6.5-71.3
		c0,0,6.5-74,6.5-74c0.2-2,1.6-3.4,3.5-3.4c1.8,0,3.3,1.4,3.5,3.4l7.4,74L117,542.2z M145.1,544.5c-0.2,2.3-1.9,4-4.1,4
		c-2.2,0-3.9-1.7-4.1-4l-6.1-73.6l6.1-76c0.2-2.3,1.9-4,4.1-4c2.1,0,3.9,1.7,4.1,4l7,76.1L145.1,544.5z M173.4,545.1
		c-0.2,2.6-2.2,4.6-4.7,4.6c-2.5,0-4.5-2-4.7-4.6l-5.8-74.2l5.8-70.5c0.2-2.6,2.2-4.6,4.7-4.6c2.5,0,4.5,2,4.7,4.6l6.6,70.6
		L173.4,545.1z M202,545.1L202,545.1c-0.2,2.9-2.5,5.2-5.3,5.2c-2.8,0-5.1-2.3-5.3-5.2l-5.4-74.2l5.4-114.8c0.2-2.9,2.5-5.2,5.3-5.2
		c2.8,0,5.1,2.3,5.3,5.2l6.1,114.8L202,545.1z M230.3,545.1L230.3,545.1c-0.1,3.2-2.7,5.8-5.9,5.8c-3.1,0-5.7-2.5-5.8-5.8l-5.1-73.7
		c0,0,5.1-141,5.1-141c0.1-3.2,2.7-5.8,5.9-5.8c3.1,0,5.7,2.5,5.9,5.8l5.7,141L230.3,545.1z M259.8,543.9L259.8,543.9
		c-0.1,3.5-3,6.3-6.4,6.3c-3.5,0-6.3-2.8-6.4-6.3l-4.7-73c0,0,4.7-152.8,4.7-152.8c0.1-3.6,3-6.4,6.4-6.4c3.5,0,6.3,2.8,6.4,6.4
		l5.3,152.8L259.8,543.9z M289,543.4c-0.1,3.9-3.2,7-7,7c-3.8,0-6.9-3.1-7-6.9l-4.4-72.5l4.4-157.9c0.1-3.9,3.2-7,7-7
		c3.8,0,6.9,3.1,7,7l4.9,157.9L289,543.4z M318.4,542.8L318.4,542.8c-0.1,4.2-3.5,7.5-7.6,7.5c-4.2,0-7.5-3.4-7.6-7.6l-4-71.8
		l4-153.9c0.1-4.3,3.5-7.6,7.6-7.6c4.2,0,7.5,3.3,7.6,7.6L323,471L318.4,542.8z M348.1,542.4L348.1,542.4c-0.1,4.5-3.7,8.1-8.2,8.1
		c-4.5,0-8.1-3.6-8.2-8.1L328,471l3.7-148.3c0.1-4.6,3.7-8.2,8.2-8.2c4.5,0,8.1,3.6,8.2,8.2l4.1,148.3L348.1,542.4z M378.4,534.9
		l-0.4,7c0,2.4-1.1,4.6-2.7,6.2c-1.6,1.6-3.8,2.6-6.2,2.6c-2.7,0-5.1-1.2-6.7-3.2c-1.2-1.4-2-3.3-2-5.2c0-0.1,0-0.2,0-0.3
		c0,0-3.3-70.8-3.3-70.9l3.3-174.7l0-1.7c0-3.1,1.7-5.8,4.1-7.4c1.4-0.9,3-1.4,4.7-1.4c1.8,0,3.5,0.6,4.9,1.5
		c2.3,1.6,3.9,4.2,3.9,7.3l3.7,176.5L378.4,534.9z M407.8,540.9L407.8,540.9L407.8,540.9c-0.1,5.1-4.3,9.3-9.4,9.3
		c-5.1,0-9.4-4.2-9.4-9.3l-1.9-34.4l-1.9-35.4l3.8-191.5l0-1c0-2.9,1.4-5.5,3.5-7.2c1.6-1.3,3.7-2.1,5.9-2.1c1.8,0,3.4,0.5,4.8,1.4
		c2.7,1.6,4.6,4.6,4.6,8l4.2,192.5L407.8,540.9z M661.9,550.4c0,0-236.6,0-236.8,0c-5.1-0.5-9.2-4.6-9.2-9.8c0,0,0-271.1,0-271.2
		c0-5,1.8-7.5,8.2-10c16.6-6.4,35.4-10.2,54.6-10.2c78.8,0,143.3,60.4,150.2,137.4c10.2-4.3,21.3-6.6,33-6.6
		c47.2,0,85.4,38.3,85.4,85.4C747.3,512.5,709.1,550.4,661.9,550.4z"/>
</g>
</svg>
